<svg width="160" height="168" viewBox="0 0 160 168" fill="none" xmlns="http://www.w3.org/2000/svg">
<rect width="160" height="168" rx="10" fill="#83CD20"/>
<g clip-path="url(#clip0_1_6305)">
<path d="M100.676 64.4492C103.113 64.4492 105.145 62.4688 105.145 59.9805C105.145 57.4922 103.113 55.5625 100.676 55.5625C98.2383 55.5625 96.207 57.543 96.207 60.0312C96.207 62.4687 98.1875 64.4492 100.676 64.4492ZM100.676 57.3398C102.148 57.3398 103.367 58.5586 103.367 60.0312C103.367 61.5039 102.148 62.7227 100.676 62.7227C99.2031 62.7227 97.9844 61.5039 97.9844 60.0312C97.9844 58.5586 99.1523 57.3398 100.676 57.3398Z" fill="white"/>
<path d="M106.008 74.7578C105.195 73.0313 104.231 71.3555 103.113 69.832C105.551 68.207 109.156 65.0078 109.156 60.0312C109.156 55.3086 105.348 51.5508 100.676 51.5508C96.0041 51.5508 92.1447 55.3086 92.1447 60.0312V60.5898C91.4845 60.2852 90.8244 59.9805 90.1642 59.6758C71.0705 52.0078 49.9455 65.8711 49.8439 86.9453C49.7931 103.195 62.8947 116.398 79.1447 116.449C95.3947 116.5 108.598 103.398 108.649 87.1484C108.649 87.0469 108.649 86.9961 108.649 86.8945C108.649 82.7305 107.735 78.5664 106.008 74.7578ZM100.676 53.2773C104.383 53.2773 107.379 56.2734 107.43 60.0312C107.43 65.3633 102.149 68.5117 100.676 69.2227C99.2541 68.4609 93.922 65.3633 93.922 60.0312C93.922 56.2734 96.9181 53.2773 100.676 53.2773ZM100.27 71.0508C100.524 71.1523 100.777 71.1523 100.981 71.0508C101.031 71.0508 101.235 70.9492 101.539 70.7461C102.352 71.8633 103.063 73.0313 103.723 74.25H98.4416L94.8869 70.6953C94.6837 70.4922 94.3791 70.3906 94.0744 70.4414L83.6134 72.7773C83.2072 72.8789 82.9025 73.2344 82.9025 73.6406V75.7734C82.9025 76.2305 83.2072 76.5859 83.6642 76.6367L90.8751 77.7539L92.6525 81.207C92.7541 81.4102 92.9572 81.6133 93.2111 81.6641L97.7814 82.9336V85.5234L95.0392 88.3672C94.8869 88.5195 94.7853 88.7734 94.7853 88.9766V93.293L89.758 102.078H86.965V99.2852C86.965 99.0313 86.8634 98.7774 86.6603 98.625L82.8009 95.1211V91.0586C82.8009 90.7031 82.547 90.3477 82.2423 90.2461L74.3205 87.3516V80.75L79.5001 75.1641C79.8556 74.8086 79.8048 74.25 79.4494 73.8945L79.3986 73.8438L74.6759 70.1875L78.5353 64.7031H86.4572C86.7111 64.7031 86.9142 64.6016 87.0666 64.4492L90.0119 61.5039C90.8244 61.8594 91.6876 62.2656 92.5001 62.7227C94.1251 68.207 100.016 70.8984 100.27 71.0508ZM61.422 65.8711L63.6564 70.4922L61.8791 71.4063C61.7775 71.457 61.7267 71.5078 61.6251 71.5586L57.4103 75.875C57.1564 76.1289 57.1056 76.4844 57.2072 76.7891L57.8166 78.5156C57.1564 78.9219 56.4962 79.4805 55.9884 80.0391L52.383 80.6484C53.7033 74.8594 56.9025 69.6797 61.422 65.8711ZM62.2853 94.8672C60.8634 94.1055 55.5314 91.0078 55.5314 85.6758C55.5822 81.9688 58.6291 78.9727 62.3361 79.0234C65.9923 79.0742 68.9884 82.0195 68.9884 85.6758C68.9884 91.0078 63.7072 94.1563 62.2853 94.8672ZM51.672 85.4727C51.7228 84.457 51.8244 83.4922 51.9767 82.4766L54.5666 82.0195C54.0587 83.0859 53.7541 84.2539 53.7541 85.4219H51.672V85.4727ZM61.8791 104.313V108.477C55.4806 103.297 51.7228 95.5274 51.6212 87.25H53.9064C54.8712 93.4961 61.6251 96.543 61.9298 96.6953C62.1837 96.7969 62.4376 96.7969 62.6408 96.6953C63.3517 96.3399 64.0119 95.9844 64.672 95.5273L65.5861 96.4414V98.8789L64.4689 100.555C64.215 100.91 64.3166 101.418 64.6212 101.723L64.8751 101.977L62.2345 103.551C62.0314 103.703 61.8791 103.957 61.8791 104.313ZM79.2462 114.621C73.6603 114.621 68.2267 112.945 63.6564 109.797V104.82L66.9572 102.84C67.3634 102.586 67.5158 102.027 67.2619 101.621C67.2111 101.52 67.1603 101.469 67.0587 101.418L66.4494 100.91L67.2619 99.6914C67.3634 99.5391 67.4142 99.3867 67.4142 99.1836V96.1367C67.4142 95.8828 67.3126 95.6797 67.1603 95.5273L66.1955 94.5625C68.4298 92.7852 70.8673 89.8398 70.8673 85.7773C70.8673 81.1055 67.1095 77.2969 62.3869 77.2969C61.3712 77.2969 60.4064 77.4492 59.4416 77.8047L59.0861 76.7891L62.7931 72.9805L65.2306 71.7617C65.6876 71.5586 65.84 71 65.6369 70.5938L62.8439 64.8555C70.1564 59.4727 79.6525 58 88.2345 60.9453L86.1017 62.9766H78.0783C77.7736 62.9766 77.5197 63.1289 77.3673 63.332L72.7462 69.8828C72.4923 70.2891 72.5431 70.7969 72.9494 71.1016L77.5705 74.6563L72.797 79.7852C72.6447 79.9375 72.5431 80.1406 72.5431 80.3945V87.9609C72.5431 88.3164 72.797 88.6719 73.1017 88.7734L81.0236 91.668V95.5273C81.0236 95.7813 81.1251 96.0352 81.3283 96.1875L85.1876 99.6914V102.992C85.1876 103.5 85.5939 103.855 86.0509 103.855H90.2658C90.5705 103.855 90.8751 103.703 91.0275 103.398L96.4611 93.9531C96.5626 93.8008 96.5626 93.6484 96.5626 93.4961V89.2813L99.3048 86.5391C99.4572 86.3867 99.5587 86.1328 99.5587 85.9297V82.3242C99.5587 81.918 99.3048 81.5625 98.8986 81.4609L94.0236 80.0898L92.2462 76.5859C92.0939 76.332 91.8908 76.1797 91.5861 76.1289L84.6798 75.0625V74.3516L93.9728 72.2695L97.4767 75.7734C97.6291 75.9258 97.883 76.0273 98.0861 76.0273H104.586C106.11 79.4805 106.871 83.1875 106.871 86.9961C106.871 102.23 94.4806 114.57 79.2462 114.621Z" fill="white"/>
<path d="M62.2852 81.207C59.8477 81.207 57.8164 83.1875 57.8164 85.6758C57.8164 88.1133 59.7969 90.1445 62.2852 90.1445C64.7734 90.1445 66.7539 88.1641 66.7539 85.6758C66.7031 83.2383 64.7227 81.207 62.2852 81.207ZM62.2852 88.3672C60.8125 88.3672 59.5937 87.1484 59.5937 85.6758C59.5937 84.2031 60.8125 82.9844 62.2852 82.9844C63.7578 82.9844 64.9766 84.2031 64.9766 85.6758C64.9766 87.1484 63.7578 88.3672 62.2852 88.3672Z" fill="white"/>
</g>
<defs>
<clipPath id="clip0_1_6305">
<rect width="65" height="65" fill="white" transform="translate(47 51.5)"/>
</clipPath>
</defs>
</svg>
