<svg width="160" height="168" viewBox="0 0 160 168" fill="none" xmlns="http://www.w3.org/2000/svg">
<rect width="160" height="168" rx="10" fill="#83CD20"/>
<g clip-path="url(#clip0_1_6301)">
<path d="M107.249 69.9081C107.249 67.2069 106.448 64.5662 104.947 62.3202C103.447 60.0741 101.314 58.3235 98.818 57.2897C96.3224 56.256 93.5762 55.9854 90.9269 56.5124C88.2775 57.0394 85.8439 58.3401 83.9338 60.2502C82.0237 62.1603 80.723 64.5939 80.196 67.2433C79.669 69.8926 79.9395 72.6388 80.9733 75.1344C82.0071 77.63 83.7577 79.7631 86.0038 81.2637C88.2498 82.7644 90.8905 83.5653 93.5917 83.5652C97.2126 83.5612 100.684 82.121 103.244 79.5607C105.805 77.0004 107.245 73.529 107.249 69.9081ZM81.7115 69.9081C81.7114 67.5584 82.408 65.2614 83.7134 63.3077C85.0188 61.3539 86.8742 59.8311 89.045 58.9318C91.2158 58.0326 93.6046 57.7972 95.9091 58.2556C98.2137 58.7139 100.331 59.8454 101.992 61.5068C103.654 63.1683 104.785 65.2851 105.244 67.5897C105.702 69.8943 105.467 72.283 104.568 74.4539C103.669 76.6248 102.146 78.4802 100.192 79.7857C98.2384 81.0911 95.9414 81.7879 93.5917 81.7879C90.4421 81.7843 87.4225 80.5315 85.1953 78.3044C82.9681 76.0773 81.7152 73.0578 81.7115 69.9081Z" fill="white"/>
<path d="M100.321 97.2691H69.662V94.2593H93.5926C93.7151 94.2589 93.8362 94.233 93.9481 94.1832H93.9511C94.6895 93.8572 112.001 86.0023 112.001 69.9082C112.001 65.026 110.061 60.3438 106.609 56.8916C103.157 53.4394 98.4748 51.5 93.5926 51.5C88.7105 51.5 84.0283 53.4394 80.576 56.8916C77.1238 60.3438 75.1844 65.026 75.1844 69.9082C75.1844 78.2734 79.8614 84.4078 84.4566 88.4195H69.2811C67.8338 88.4211 66.4462 88.9968 65.4228 90.0202C64.3994 91.0436 63.8237 92.4312 63.8221 93.8785V97.6485C63.8237 99.0958 64.3994 100.483 65.4228 101.507C66.4462 102.53 67.8338 103.106 69.2811 103.107H99.9403V105.739H62.1082C61.4299 104.049 60.1844 102.648 58.5856 101.777C56.9867 100.905 55.1343 100.617 53.3463 100.963C51.5583 101.308 49.9464 102.265 48.7873 103.67C47.6281 105.074 46.9941 106.838 46.9941 108.659C46.9941 110.48 47.6281 112.245 48.7873 113.649C49.9464 115.054 51.5583 116.011 53.3463 116.356C55.1343 116.702 56.9867 116.414 58.5856 115.542C60.1844 114.67 61.4299 113.269 62.1082 111.579H100.321C101.768 111.578 103.156 111.002 104.179 109.979C105.203 108.955 105.779 107.568 105.78 106.12V102.727C105.778 101.28 105.202 99.8924 104.179 98.8693C103.156 97.8462 101.768 97.2708 100.321 97.2691ZM76.9618 69.9082C76.9618 65.4974 78.7139 61.2673 81.8328 58.1484C84.9517 55.0295 89.1818 53.2773 93.5926 53.2773C98.0034 53.2773 102.234 55.0295 105.352 58.1484C108.471 61.2673 110.223 65.4974 110.223 69.9082C110.223 83.6105 96.0504 91.1789 93.5921 92.3875C91.1323 91.181 76.9618 83.6298 76.9618 69.9082ZM54.8399 114.724C53.641 114.724 52.4689 114.369 51.472 113.703C50.4751 113.036 49.6981 112.09 49.2392 110.982C48.7803 109.874 48.6602 108.656 48.8941 107.48C49.1279 106.304 49.7052 105.223 50.5529 104.376C51.4006 103.528 52.4807 102.95 53.6566 102.716C54.8325 102.482 56.0514 102.602 57.1591 103.061C58.2669 103.52 59.2138 104.296 59.88 105.293C60.5463 106.29 60.902 107.462 60.9022 108.661C60.9007 110.268 60.2616 111.81 59.125 112.946C57.9885 114.083 56.4474 114.722 54.8399 114.724ZM104.003 106.122C104.002 107.098 103.613 108.034 102.923 108.724C102.233 109.414 101.297 109.802 100.321 109.803H62.5866C62.7105 109.047 62.7105 108.275 62.5866 107.518H100.321C100.691 107.518 101.046 107.371 101.308 107.109C101.57 106.847 101.717 106.492 101.718 106.122V102.728C101.717 102.358 101.57 102.003 101.308 101.741C101.046 101.479 100.691 101.332 100.321 101.332H69.2811C68.305 101.331 67.3692 100.942 66.679 100.252C65.9888 99.5619 65.6005 98.6261 65.5995 97.65V93.88C65.6005 92.9039 65.9888 91.9681 66.679 91.2779C67.3692 90.5877 68.305 90.1994 69.2811 90.1984H86.6529C87.7454 91.0167 88.8786 91.7794 90.0481 92.4835H69.2811C68.9108 92.4838 68.5558 92.631 68.2939 92.8928C68.0321 93.1547 67.8849 93.5097 67.8846 93.88V97.65C67.885 98.0203 68.0323 98.3752 68.2941 98.637C68.5559 98.8988 68.9108 99.0461 69.2811 99.0465H100.321C101.297 99.0476 102.233 99.4358 102.923 100.126C103.613 100.816 104.002 101.752 104.003 102.728V106.122Z" fill="white"/>
</g>
<defs>
<clipPath id="clip0_1_6301">
<rect width="65" height="65" fill="white" transform="translate(47 51.5)"/>
</clipPath>
</defs>
</svg>
