<svg width="160" height="168" viewBox="0 0 160 168" fill="none" xmlns="http://www.w3.org/2000/svg">
<rect width="160" height="168" rx="10" fill="#83CD20"/>
<g clip-path="url(#clip0_1_6296)">
<path d="M104.374 90.4302C106.512 84.1291 106.456 77.29 104.214 71.0252C101.971 64.7604 97.6756 59.4384 92.0249 55.9249C86.3742 52.4114 79.7009 50.9131 73.0906 51.6737C66.4802 52.4343 60.3216 55.409 55.6165 60.114C50.9114 64.819 47.9365 70.9775 47.1758 77.5878C46.415 84.1982 47.9131 90.8714 51.4264 96.5223C54.9398 102.173 60.2616 106.469 66.5264 108.711C72.7911 110.954 79.6303 111.01 85.9314 108.872C86.9034 110.826 88.3261 112.519 90.0819 113.814C91.8377 115.109 93.8763 115.967 96.0294 116.319C98.1824 116.67 100.388 116.505 102.465 115.835C104.541 115.166 106.428 114.013 107.971 112.47C109.514 110.927 110.667 109.04 111.337 106.964C112.006 104.887 112.172 102.681 111.82 100.528C111.469 98.3753 110.61 96.3367 109.316 94.5808C108.021 92.825 106.327 91.4023 104.374 90.4302ZM102.732 89.7396C99.3527 88.5677 95.6488 88.7631 92.4111 90.284L93.7136 88.0105C93.7906 87.876 93.8311 87.7237 93.8309 87.5687V83.3665L96.5924 80.5258C96.7538 80.36 96.844 80.1377 96.8438 79.9063V76.2912C96.8438 76.0971 96.7802 75.9084 96.6629 75.7539C96.5455 75.5994 96.3807 75.4876 96.1938 75.4355L91.3188 74.0766L89.516 70.5494C89.4522 70.4246 89.3598 70.3167 89.2463 70.2344C89.1328 70.1522 89.0014 70.0979 88.863 70.0761L81.9517 68.9888V68.3104L91.2812 66.2456L94.7673 69.7292C94.9342 69.8959 95.1602 69.9895 95.396 69.9897H101.886C104.591 76.2432 104.893 83.2755 102.732 89.7376V89.7396ZM101.036 68.2144H95.7637L92.1953 64.6445C92.0896 64.539 91.9592 64.4617 91.8158 64.4198C91.6725 64.378 91.521 64.3728 91.3751 64.4048L80.871 66.7291C80.6736 66.7729 80.4969 66.8826 80.3703 67.0403C80.2436 67.198 80.1745 67.3942 80.1743 67.5964V69.7485C80.1744 69.9602 80.2501 70.1649 80.3877 70.3258C80.5253 70.4867 80.7158 70.5931 80.9249 70.626L88.1394 71.7605L89.9132 75.2319C89.969 75.3413 90.0469 75.4379 90.142 75.5156C90.2371 75.5933 90.3473 75.6504 90.4657 75.6833L95.0664 76.9656V79.5453L92.305 82.386C92.1438 82.5519 92.0536 82.7741 92.0536 83.0055V87.3316L89.1194 92.4549C87.932 93.5081 86.9344 94.7576 86.1701 96.1487H84.1896V93.3359C84.1896 93.2128 84.164 93.0909 84.1144 92.9782C84.0648 92.8654 83.9924 92.7642 83.9017 92.6808L80.0585 89.1571V85.0713C80.0585 84.8889 80.0024 84.7109 79.8977 84.5616C79.7931 84.4122 79.645 84.2987 79.4735 84.2364L71.5354 81.35V74.7485L76.7222 69.1478C76.8063 69.0571 76.8704 68.9498 76.9106 68.8329C76.9509 68.7159 76.9662 68.5919 76.9558 68.4687C76.9453 68.3454 76.9092 68.2258 76.8499 68.1173C76.7905 68.0088 76.7091 67.9139 76.611 67.8387L71.867 64.1997L75.7548 58.7153H83.6884C83.924 58.7152 84.15 58.6215 84.3166 58.4548L87.2913 55.4805C93.2056 58.011 98.0619 62.5103 101.036 68.2144ZM58.5918 59.8437L60.8231 64.4399L59.0265 65.3387C58.9382 65.3828 58.8579 65.4413 58.7888 65.5119L54.5709 69.8156C54.4544 69.9345 54.3735 70.0837 54.3376 70.2463C54.3017 70.4089 54.3122 70.5783 54.3678 70.7352L54.9726 72.4354C54.2793 72.8626 53.6514 73.3879 53.1084 73.9949L49.5248 74.5981C50.8938 68.8379 54.0713 63.6673 58.5918 59.8437ZM48.7839 81.2256H51.6952L59.0407 83.9886L62.7985 90.3505V92.8967L61.6976 94.5684C61.5769 94.7512 61.5281 94.9721 61.5604 95.1887C61.5928 95.4053 61.704 95.6023 61.8728 95.7419L62.1521 95.9725L59.4866 97.566C59.3547 97.6447 59.2456 97.7563 59.1698 97.8898C59.094 98.0233 59.054 98.1742 59.0539 98.3277V102.473C55.8802 99.9087 53.3135 96.6737 51.5378 93.0002C49.7622 89.3266 48.8217 85.3056 48.7839 81.2256ZM76.4683 108.658C70.8827 108.663 65.4277 106.969 60.8277 103.8C60.8277 103.789 60.8307 103.779 60.8307 103.767V98.833L64.1427 96.8525C64.2649 96.7796 64.3679 96.6785 64.4429 96.5575C64.5178 96.4365 64.5626 96.2993 64.5735 96.1573C64.5843 96.0154 64.5609 95.873 64.5052 95.742C64.4495 95.611 64.3631 95.4954 64.2534 95.4048L63.6196 94.8802L64.4286 93.6523C64.5245 93.5073 64.5756 93.3372 64.5753 93.1633V90.1073C64.5755 89.9484 64.5329 89.7925 64.4519 89.6558L60.4118 82.8156C60.3087 82.641 60.1491 82.507 59.9593 82.4357L52.1695 79.5051C52.0695 79.4676 51.9635 79.4483 51.8567 79.4483H48.8205C48.8763 78.4481 48.986 77.4517 49.149 76.4633L53.7193 75.6945C53.9304 75.659 54.1215 75.5484 54.2576 75.3832C54.8604 74.6534 55.6106 74.0592 56.459 73.6394C56.6532 73.5424 56.8051 73.3778 56.8862 73.1764C56.9673 72.9751 56.972 72.7511 56.8992 72.5466L56.2289 70.6616L59.9542 66.8606L62.4034 65.6358C62.6126 65.5311 62.7721 65.3482 62.8474 65.1267C62.9227 64.9053 62.9077 64.663 62.8056 64.4526L60.0167 58.7097C63.6213 56.0363 67.8232 54.2819 72.2586 53.5984C76.694 52.9148 81.2291 53.3228 85.4713 54.7869L83.3202 56.9379H75.2953C75.1533 56.938 75.0133 56.9721 74.8872 57.0373C74.761 57.1025 74.6523 57.1969 74.5701 57.3127L69.9221 63.8701C69.7893 64.0577 69.7343 64.2894 69.7686 64.5166C69.803 64.7439 69.9241 64.949 70.1064 65.0888L74.7555 68.6547L69.9952 73.7917C69.8428 73.9561 69.7581 74.1719 69.7581 74.396V81.9726C69.7581 82.155 69.8142 82.3329 69.9189 82.4823C70.0235 82.6317 70.1716 82.7452 70.3431 82.8074L78.2812 85.6939V89.5482C78.2812 89.6713 78.3068 89.7932 78.3564 89.9059C78.406 90.0187 78.4784 90.1199 78.5691 90.2032L82.4128 93.7264V97.0374C82.4128 97.2731 82.5064 97.4991 82.673 97.6658C82.8397 97.8324 83.0657 97.926 83.3014 97.926H85.3565C84.235 100.92 84.1942 104.211 85.2413 107.232C82.4131 108.178 79.4505 108.659 76.4683 108.658ZM98.2423 114.721C95.8727 114.722 93.5562 114.019 91.5859 112.703C89.6156 111.386 88.0799 109.515 87.173 107.326C86.2662 105.136 86.0289 102.727 86.4911 100.403C86.9534 98.0793 88.0945 95.9445 89.7701 94.2689C91.4456 92.5933 93.5805 91.4522 95.9046 90.99C98.2287 90.5277 100.638 90.765 102.827 91.6719C105.016 92.5787 106.887 94.1144 108.204 96.0847C109.52 98.0551 110.223 100.371 110.223 102.741C110.219 105.917 108.956 108.963 106.71 111.208C104.464 113.454 101.419 114.718 98.2423 114.721Z" fill="white"/>
<path d="M107.757 97.7177L106.627 96.5873C106.076 96.0362 105.329 95.7266 104.549 95.7266C103.77 95.7266 103.022 96.0362 102.471 96.5873L100.101 98.9572L96.0585 98.0213C95.5161 97.894 94.9502 97.9077 94.4146 98.0612C93.879 98.2146 93.3916 98.5026 92.9989 98.8978L92.0651 99.8322C91.9626 99.9344 91.8867 100.06 91.844 100.198C91.8012 100.337 91.7929 100.483 91.8197 100.626C91.8465 100.768 91.9077 100.901 91.9979 101.014C92.0881 101.128 92.2046 101.217 92.3373 101.275L96.1281 102.93L94.6351 104.423L91.085 104.752C90.8788 104.77 90.6855 104.86 90.5386 105.006L88.7267 106.817C88.6173 106.927 88.5385 107.063 88.4979 107.212C88.4573 107.362 88.4564 107.519 88.4954 107.669C88.5343 107.819 88.6117 107.956 88.7199 108.067C88.828 108.177 88.9633 108.258 89.1121 108.3L93.5464 109.562C94.4009 109.805 95.3049 109.815 96.1649 109.592C97.0248 109.369 97.8096 108.92 98.4381 108.292L107.757 98.9735C107.84 98.891 107.905 98.7931 107.95 98.6853C107.994 98.5776 108.017 98.462 108.017 98.3453C108.017 98.2286 107.994 98.1131 107.95 98.0053C107.905 97.8975 107.84 97.8001 107.757 97.7177ZM97.1813 107.036C96.7769 107.44 96.2718 107.729 95.7183 107.873C95.1648 108.017 94.5829 108.01 94.0328 107.854L91.054 107.007L91.5689 106.492L95.1191 106.163C95.3253 106.144 95.5186 106.055 95.6655 105.909L98.3061 103.268C98.4084 103.166 98.4842 103.04 98.5268 102.902C98.5695 102.764 98.5778 102.617 98.5509 102.475C98.524 102.333 98.4628 102.199 98.3726 102.086C98.2824 101.973 98.166 101.884 98.0334 101.826L94.2431 100.17L94.2563 100.157C94.436 99.9755 94.6591 99.8435 94.9045 99.7733C95.1498 99.703 95.409 99.6969 95.6573 99.7555L100.18 100.803C100.327 100.837 100.48 100.833 100.625 100.791C100.77 100.75 100.902 100.672 101.009 100.565L103.728 97.8467C103.949 97.635 104.243 97.5169 104.549 97.5169C104.855 97.5169 105.149 97.635 105.37 97.8467L105.872 98.3484L97.1813 107.036Z" fill="white"/>
</g>
<defs>
<clipPath id="clip0_1_6296">
<rect width="65" height="65" fill="white" transform="translate(47 51.5)"/>
</clipPath>
</defs>
</svg>
