<svg width="64" height="65" viewBox="0 0 64 65" fill="none" xmlns="http://www.w3.org/2000/svg">
<rect y="0.5" width="64" height="64" rx="32" fill="#83CD20"/>
<g clip-path="url(#clip0_1_2767)">
<path d="M45.1659 36.2294V34.3359H36.4371C36.4371 36.786 34.451 38.7722 32.0009 38.7722C29.5508 38.7722 27.5646 36.786 27.5646 34.3359H18.8359V36.2294L22.6262 36.6308C22.8627 37.5999 23.2455 38.5117 23.7499 39.3414L21.3529 42.3061L24.0307 44.9839L26.9954 42.5869C27.8251 43.0914 28.7369 43.4742 29.7061 43.7106L30.1074 47.5009H33.8944L34.2957 43.7106C35.2649 43.4742 36.1767 43.0914 37.0064 42.5869L39.9711 44.9839L42.6488 42.3061L40.2519 39.3414C40.7563 38.5117 41.1391 37.5999 41.3755 36.6308L45.1659 36.2294Z" fill="white"/>
<path d="M32.0019 17.5C30.127 17.5 28.6016 19.0254 28.6016 20.9004C28.6016 22.7753 30.127 24.3007 32.0019 24.3007C33.8769 24.3007 35.4023 22.7753 35.4023 20.9004C35.4023 19.0254 33.8769 17.5 32.0019 17.5Z" fill="white"/>
<path d="M35.6231 25.2422H28.3825C26.7155 25.2422 25.3594 26.5983 25.3594 28.2653V32.5786H38.6462V28.2653C38.6462 26.5983 37.2901 25.2422 35.6231 25.2422Z" fill="white"/>
<path d="M24.7883 19.0703C23.1087 19.0703 21.7422 20.4368 21.7422 22.1164C21.7422 23.7825 23.087 25.1397 24.748 25.1615C25.4359 24.3569 26.3851 23.7826 27.4635 23.572C27.6998 23.1392 27.8344 22.6433 27.8344 22.1164C27.8344 20.4368 26.4679 19.0703 24.7883 19.0703Z" fill="white"/>
<path d="M21.5441 26.0078C20.0508 26.0078 18.8359 27.2226 18.8359 28.716V32.5799H23.5997V28.2665C23.5997 27.45 23.8058 26.6809 24.1682 26.0078H21.5441Z" fill="white"/>
<path d="M39.2141 19.0703C37.5344 19.0703 36.168 20.4368 36.168 22.1164C36.168 22.6432 36.3025 23.1392 36.5389 23.572C37.6173 23.7826 38.5664 24.3569 39.2543 25.1615C40.9154 25.1398 42.2602 23.7825 42.2602 22.1164C42.2602 20.4368 40.8937 19.0703 39.2141 19.0703Z" fill="white"/>
<path d="M42.4562 26.0078H39.832C40.1944 26.6809 40.4006 27.45 40.4006 28.2665V32.5799H45.1643V28.7159C45.1643 27.2226 43.9494 26.0078 42.4562 26.0078Z" fill="white"/>
</g>
<defs>
<clipPath id="clip0_1_2767">
<rect width="30" height="30" fill="white" transform="translate(17 17.5)"/>
</clipPath>
</defs>
</svg>
