<svg width="64" height="65" viewBox="0 0 64 65" fill="none" xmlns="http://www.w3.org/2000/svg">
<rect y="0.5" width="64" height="64" rx="32" fill="#83CD20"/>
<g clip-path="url(#clip0_1_2751)">
<path d="M44.7002 42.9901C44.7002 42.9901 41.3704 37.2674 40.7732 36.241C41.4527 36.0337 42.1766 35.8506 42.4774 35.3313C42.9787 34.4659 42.0864 33.0463 42.3207 32.1188C42.562 31.1642 43.9868 30.3381 43.9868 29.3678C43.9868 28.4224 42.5138 27.3179 42.2723 26.3689C42.0364 25.4415 42.926 24.0204 42.4231 23.1561C41.9202 22.2917 40.2452 22.3627 39.5556 21.6992C38.8462 21.0164 38.8484 19.3459 37.9927 18.8883C37.1334 18.429 35.7371 19.3572 34.7831 19.1373C33.84 18.92 32.9974 17.5 32.0123 17.5C31.0126 17.5 29.4225 19.1107 29.1731 19.1687C28.2196 19.3904 26.8215 18.4644 25.9631 18.9257C25.1082 19.3848 25.1135 21.0555 24.4053 21.7394C23.717 22.4041 22.0418 22.3362 21.5405 23.2016C21.0392 24.0668 21.9315 25.486 21.6973 26.4141C21.4624 27.3444 19.988 28.2872 19.988 29.3631C19.988 30.3336 21.4164 31.157 21.6592 32.1112C21.8952 33.0386 21.0056 34.4595 21.5085 35.3242C21.7822 35.7948 22.4034 35.988 23.0238 36.1737C23.0962 36.1954 23.2331 36.2763 23.1404 36.4115C22.716 37.1441 19.3 43.0396 19.3 43.0396C19.0282 43.5085 19.2489 43.9104 19.7902 43.9332L22.4399 44.0437C22.9812 44.0665 23.6603 44.4599 23.9492 44.9182L25.3631 47.1618C25.6521 47.6201 26.1105 47.6115 26.3822 47.1426C26.3822 47.1426 30.3383 40.3126 30.3399 40.3107C30.4193 40.2179 30.4991 40.237 30.5372 40.2694C30.9701 40.638 31.5735 41.0056 32.0771 41.0056C32.571 41.0056 33.0284 40.6595 33.4807 40.2735C33.5175 40.2422 33.6071 40.1779 33.6726 40.3113C33.6737 40.3134 37.6254 47.1061 37.6254 47.1061C37.8978 47.5743 38.3563 47.5823 38.6444 47.1234L40.0543 44.8771C40.3425 44.4185 41.0208 44.0236 41.5621 44L44.2115 43.8846C44.7526 43.8608 44.9726 43.4583 44.7002 42.9901ZM36.3912 36.8464C33.4616 38.5508 29.9451 38.3681 27.2592 36.6739C23.3235 34.153 22.0285 28.9381 24.3945 24.8546C26.7874 20.7239 32.0476 19.2664 36.2155 21.5363C36.2374 21.5483 36.259 21.5606 36.2807 21.5727C36.3116 21.5899 36.3424 21.6072 36.3732 21.6247C37.659 22.366 38.7739 23.442 39.5723 24.8143C42.0125 29.0086 40.5855 34.4063 36.3912 36.8464Z" fill="white"/>
<path d="M35.7213 22.8585C35.7091 22.8514 35.6968 22.8449 35.6846 22.8379C33.4582 21.5493 30.6205 21.4551 28.2423 22.8388C24.713 24.892 23.5121 29.4336 25.5654 32.9628C26.1919 34.0397 27.0504 34.8994 28.041 35.5164C28.1252 35.5697 28.2104 35.6222 28.2975 35.6726C31.8305 37.7194 36.3697 36.5103 38.4164 32.9774C40.4631 29.4444 39.2543 24.9053 35.7213 22.8585ZM36.6051 28.6341L35.368 29.8399C34.9849 30.2134 34.7454 30.9505 34.836 31.4778L35.128 33.1804C35.2185 33.7078 34.905 33.9355 34.4314 33.6866L32.9023 32.8827C32.4287 32.6337 31.6537 32.6337 31.1801 32.8827L29.6511 33.6866C29.1774 33.9355 28.8639 33.7078 28.9544 33.1804L29.2464 31.4778C29.3369 30.9505 29.0974 30.2134 28.7143 29.8399L27.4773 28.6341C27.0941 28.2607 27.2139 27.8922 27.7434 27.8152L29.4529 27.5667C29.9823 27.4898 30.6093 27.0343 30.8462 26.5545L31.6107 25.0054C31.8475 24.5256 32.235 24.5256 32.4717 25.0054L33.2363 26.5545C33.4731 27.0343 34.1001 27.4898 34.6296 27.5667L36.3391 27.8152C36.8685 27.8922 36.9883 28.2607 36.6051 28.6341Z" fill="white"/>
</g>
<defs>
<clipPath id="clip0_1_2751">
<rect width="30" height="30" fill="white" transform="translate(17 17.5)"/>
</clipPath>
</defs>
</svg>
