<svg width="64" height="65" viewBox="0 0 64 65" fill="none" xmlns="http://www.w3.org/2000/svg">
<rect y="0.5" width="64" height="64" rx="32" fill="#83CD20"/>
<g clip-path="url(#clip0_1_2793)">
<path d="M28.4258 31.6211C28.9104 31.6211 29.3047 32.0154 29.3047 32.5C29.3047 32.9846 28.9104 33.3789 28.4258 33.3789C27.9412 33.3789 27.5469 32.9846 27.5469 32.5C27.5469 32.0154 27.9412 31.6211 28.4258 31.6211Z" fill="white"/>
<path d="M29.3047 28.1934V30.0145C29.0299 29.9166 28.734 29.8633 28.4258 29.8633C26.9721 29.8633 25.7891 31.0463 25.7891 32.5C25.7891 33.9537 26.9721 35.1367 28.4258 35.1367C28.734 35.1367 29.0299 35.0834 29.3047 34.9855V36.8066C29.017 36.8652 28.7229 36.8945 28.4258 36.8945C26.0029 36.8945 24.0312 34.9229 24.0312 32.5C24.0312 30.0771 26.0029 28.1055 28.4258 28.1055C28.7229 28.1055 29.017 28.1348 29.3047 28.1934Z" fill="white"/>
<path d="M22.2734 32.5C22.2734 35.8926 25.0332 38.6523 28.4258 38.6523C28.7217 38.6523 29.0152 38.6318 29.3047 38.5896V43.9258H26.668C26.1828 43.9258 25.7891 43.532 25.7891 43.0469V41.8023C25.0701 41.5979 24.377 41.3084 23.7166 40.9375L22.8324 41.8223C22.4891 42.1656 21.933 42.1656 21.5896 41.8223L19.1035 39.3361C18.76 38.9927 18.7614 38.4355 19.1035 38.0934L19.9883 37.2086C19.6168 36.5488 19.3279 35.8557 19.1234 35.1367H17.8789C17.3938 35.1367 17 34.743 17 34.2578V30.7422C17 30.257 17.3938 29.8633 17.8789 29.8633H19.1234C19.3279 29.1443 19.6168 28.4512 19.9883 27.7908L19.1035 26.9066C18.7614 26.5645 18.76 26.0073 19.1035 25.6639L21.5896 23.1777C21.933 22.8344 22.4891 22.8344 22.8324 23.1777L23.7172 24.0625C24.377 23.691 25.0701 23.4021 25.7891 23.1977V21.9531C25.7891 21.468 26.1828 21.0742 26.668 21.0742H29.3047V26.4104C29.0152 26.3682 28.7217 26.3477 28.4258 26.3477C25.0332 26.3477 22.2734 29.1074 22.2734 32.5Z" fill="white"/>
<path d="M41.7266 21.5887V26.3477H46.4855L41.7266 21.5887ZM33.6992 26.3477H37.332C37.8172 26.3477 38.2109 26.7414 38.2109 27.2266C38.2109 27.7117 37.8172 28.1055 37.332 28.1055H33.6992C33.2141 28.1055 32.8203 27.7117 32.8203 27.2266C32.8203 26.7414 33.2141 26.3477 33.6992 26.3477ZM42.6055 38.6523H33.6992C33.2141 38.6523 32.8203 38.2586 32.8203 37.7734C32.8203 37.2883 33.2141 36.8945 33.6992 36.8945H42.6055C43.0906 36.8945 43.4844 37.2883 43.4844 37.7734C43.4844 38.2586 43.0906 38.6523 42.6055 38.6523ZM42.6055 35.1367H33.6992C33.2141 35.1367 32.8203 34.743 32.8203 34.2578C32.8203 33.7727 33.2141 33.3789 33.6992 33.3789H42.6055C43.0906 33.3789 43.4844 33.7727 43.4844 34.2578C43.4844 34.743 43.0906 35.1367 42.6055 35.1367ZM42.6055 31.6211H33.6992C33.2141 31.6211 32.8203 31.2273 32.8203 30.7422C32.8203 30.257 33.2141 29.8633 33.6992 29.8633H42.6055C43.0906 29.8633 43.4844 30.257 43.4844 30.7422C43.4844 31.2273 43.0906 31.6211 42.6055 31.6211ZM40.8477 28.1055C40.3625 28.1055 39.9688 27.7117 39.9688 27.2266V21.0742H31.0625V43.9258H46.1211C46.6062 43.9258 47 43.532 47 43.0469V28.1055H40.8477Z" fill="white"/>
</g>
<defs>
<clipPath id="clip0_1_2793">
<rect width="30" height="30" fill="white" transform="translate(17 17.5)"/>
</clipPath>
</defs>
</svg>
