<svg width="64" height="65" viewBox="0 0 64 65" fill="none" xmlns="http://www.w3.org/2000/svg">
<rect y="0.5" width="64" height="64" rx="32" fill="#83CD20"/>
<path fill-rule="evenodd" clip-rule="evenodd" d="M29.7169 18.5441L30.515 20.6462C30.539 20.7093 30.5949 20.7499 30.6624 20.7532L32.9082 20.8627C33.0609 20.8701 33.1234 21.0625 33.0043 21.1583L31.2517 22.5669C31.199 22.6092 31.1777 22.6749 31.1954 22.7401L31.7853 24.9098C31.8255 25.0573 31.6618 25.1763 31.5338 25.0925L29.6526 23.861C29.596 23.824 29.527 23.824 29.4705 23.861L27.5893 25.0925C27.4613 25.1763 27.2976 25.0573 27.3378 24.9098L27.9276 22.7401C27.9453 22.6749 27.9241 22.6092 27.8714 22.5669L26.1188 21.1583C25.9997 21.0625 26.0622 20.8701 26.2149 20.8626L28.4607 20.7532C28.5282 20.7499 28.5841 20.7093 28.6081 20.6461L29.4062 18.5441C29.46 18.402 29.663 18.402 29.7169 18.5441ZM40.5752 36.3469C43.3961 36.3469 45.683 38.6337 45.683 41.4547C45.683 44.2756 43.3961 46.5625 40.5752 46.5625C37.7543 46.5625 35.4674 44.2756 35.4674 41.4547C35.4674 38.6337 37.7543 36.3469 40.5752 36.3469ZM39.9043 41.9052L38.763 40.7639C38.4672 40.4681 37.9874 40.4681 37.6916 40.7639C37.3958 41.0597 37.3958 41.5395 37.6916 41.8353L39.3702 43.514C39.666 43.8097 40.1458 43.8097 40.4416 43.514C41.4534 42.5022 42.4538 41.4789 43.4609 40.4625C43.7546 40.1661 43.7536 39.6878 43.4576 39.3934C43.1615 39.099 42.6819 39.0998 42.3879 39.3968L39.9043 41.9052ZM21.1554 43.8209L35.0107 43.8208C34.7013 43.0941 34.53 42.2944 34.53 41.4547C34.53 40.1776 34.9264 38.9932 35.6023 38.0172C33.9972 36.5862 31.8812 35.7163 29.5616 35.7163C25.0966 35.7163 21.3845 38.9387 20.6232 43.1846C20.5633 43.5181 20.8166 43.8209 21.1554 43.8209ZM29.5616 25.9468C32.0976 25.9468 34.1534 28.0026 34.1534 30.5386C34.1534 33.0745 32.0976 35.1303 29.5616 35.1303C27.0257 35.1303 24.9699 33.0745 24.9699 30.5386C24.9698 28.0026 27.0256 25.9468 29.5616 25.9468ZM37.453 21.5195C37.399 21.3774 37.196 21.3774 37.1421 21.5195L36.344 23.6216C36.32 23.6848 36.2641 23.7253 36.1966 23.7286L33.9508 23.8381C33.7981 23.8455 33.7356 24.0379 33.8547 24.1337L35.6073 25.5423C35.66 25.5847 35.6813 25.6503 35.6635 25.7155L35.0737 27.8853C35.0335 28.0328 35.1972 28.1517 35.3251 28.0679L37.2064 26.8365C37.2629 26.7995 37.3319 26.7995 37.3885 26.8365L39.2697 28.0679C39.3977 28.1517 39.5614 28.0328 39.5212 27.8853L38.9313 25.7156C38.9135 25.6504 38.9349 25.5847 38.9876 25.5424L40.7401 24.1338C40.8593 24.038 40.7968 23.8456 40.644 23.8381L38.3982 23.7287C38.3307 23.7254 38.2749 23.6848 38.2509 23.6216L37.453 21.5195ZM21.9808 21.5195C21.9269 21.3774 21.7239 21.3774 21.67 21.5195L20.8719 23.6216C20.8479 23.6848 20.792 23.7253 20.7245 23.7286L18.4787 23.8381C18.326 23.8455 18.2635 24.0379 18.3826 24.1337L20.1352 25.5423C20.1879 25.5847 20.2092 25.6503 20.1914 25.7155L19.6016 27.8853C19.5614 28.0328 19.7251 28.1517 19.8531 28.0679L21.7343 26.8365C21.7908 26.7995 21.8598 26.7995 21.9164 26.8365L23.7976 28.0679C23.9256 28.1517 24.0893 28.0328 24.0491 27.8853L23.4593 25.7156C23.4415 25.6504 23.4628 25.5847 23.5155 25.5424L25.2681 24.1338C25.3872 24.038 25.3247 23.8456 25.172 23.8381L22.9262 23.7287C22.8587 23.7254 22.8028 23.6848 22.7788 23.6216L21.9808 21.5195Z" fill="white"/>
</svg>
