<svg width="100" height="100" viewBox="0 0 100 100" fill="none" xmlns="http://www.w3.org/2000/svg">
<rect width="100" height="100" rx="50" fill="#83CD20"/>
<g clip-path="url(#clip0_1_6254)">
<path d="M64.1602 36.4648C65.8477 36.4648 67.2539 35.0938 67.2539 33.3711C67.2539 31.6484 65.8477 30.3125 64.1602 30.3125C62.4727 30.3125 61.0664 31.6836 61.0664 33.4062C61.0664 35.0938 62.4375 36.4648 64.1602 36.4648ZM64.1602 31.543C65.1797 31.543 66.0234 32.3867 66.0234 33.4062C66.0234 34.4258 65.1797 35.2695 64.1602 35.2695C63.1406 35.2695 62.2969 34.4258 62.2969 33.4062C62.2969 32.3867 63.1055 31.543 64.1602 31.543Z" fill="white"/>
<path d="M67.8517 43.6016C67.2892 42.4063 66.6212 41.2461 65.8478 40.1914C67.5353 39.0664 70.0314 36.8516 70.0314 33.4062C70.0314 30.1367 67.3946 27.5352 64.1603 27.5352C60.9259 27.5352 58.254 30.1367 58.254 33.4062V33.793C57.797 33.582 57.3399 33.3711 56.8829 33.1602C43.6642 27.8516 29.0392 37.4492 28.9689 52.0391C28.9337 63.2891 38.004 72.4297 49.254 72.4648C60.504 72.5 69.6446 63.4297 69.6798 52.1797C69.6798 52.1094 69.6798 52.0742 69.6798 52.0039C69.6798 49.1211 69.047 46.2383 67.8517 43.6016ZM64.1603 28.7305C66.7267 28.7305 68.8009 30.8047 68.836 33.4062C68.836 37.0977 65.1798 39.2773 64.1603 39.7695C63.1759 39.2422 59.4845 37.0977 59.4845 33.4062C59.4845 30.8047 61.5587 28.7305 64.1603 28.7305ZM63.879 41.0352C64.0548 41.1055 64.2306 41.1055 64.3712 41.0352C64.4064 41.0352 64.547 40.9648 64.7579 40.8242C65.3204 41.5977 65.8126 42.4063 66.2696 43.25H62.6134L60.1524 40.7891C60.0118 40.6484 59.8009 40.5781 59.5899 40.6133L52.3478 42.2305C52.0665 42.3008 51.8556 42.5469 51.8556 42.8281V44.3047C51.8556 44.6211 52.0665 44.8672 52.3829 44.9023L57.3751 45.6758L58.6056 48.0664C58.6759 48.207 58.8165 48.3477 58.9923 48.3828L62.1564 49.2617V51.0547L60.2579 53.0234C60.1524 53.1289 60.0821 53.3047 60.0821 53.4453V56.4336L56.6017 62.5156H54.6681V60.582C54.6681 60.4063 54.5978 60.2305 54.4571 60.125L51.7853 57.6992V54.8867C51.7853 54.6406 51.6095 54.3945 51.3985 54.3242L45.9142 52.3203V47.75L49.5001 43.8828C49.7462 43.6367 49.711 43.25 49.4649 43.0039L49.4298 42.9688L46.1603 40.4375L48.8321 36.6406H54.3165C54.4923 36.6406 54.6329 36.5703 54.7384 36.4648L56.7774 34.4258C57.3399 34.6719 57.9376 34.9531 58.5001 35.2695C59.6251 39.0664 63.7032 40.9297 63.879 41.0352ZM36.9845 37.4492L38.5314 40.6484L37.3009 41.2813C37.2306 41.3164 37.1954 41.3516 37.1251 41.3867L34.2071 44.375C34.0314 44.5508 33.9962 44.7969 34.0665 45.0078L34.4884 46.2031C34.0314 46.4844 33.5743 46.8711 33.2228 47.2578L30.7267 47.6797C31.6407 43.6719 33.8556 40.0859 36.9845 37.4492ZM37.5821 57.5234C36.5978 56.9961 32.9064 54.8516 32.9064 51.1602C32.9415 48.5938 35.0509 46.5195 37.6173 46.5547C40.1485 46.5898 42.2228 48.6289 42.2228 51.1602C42.2228 54.8516 38.5665 57.0313 37.5821 57.5234ZM30.2345 51.0195C30.2696 50.3164 30.3399 49.6484 30.4454 48.9453L32.2384 48.6289C31.8868 49.3672 31.6759 50.1758 31.6759 50.9844H30.2345V51.0195ZM37.3009 64.0625V66.9453C32.8712 63.3594 30.2696 57.9805 30.1993 52.25H31.7814C32.4493 56.5742 37.1251 58.6836 37.336 58.7891C37.5118 58.8594 37.6876 58.8594 37.8282 58.7891C38.3204 58.543 38.7774 58.2969 39.2345 57.9805L39.8673 58.6133V60.3008L39.0939 61.4609C38.9181 61.707 38.9884 62.0586 39.1993 62.2695L39.3751 62.4453L37.547 63.5352C37.4064 63.6406 37.3009 63.8164 37.3009 64.0625ZM49.3243 71.1992C45.4571 71.1992 41.6954 70.0391 38.5314 67.8594V64.4141L40.8165 63.043C41.0978 62.8672 41.2032 62.4805 41.0274 62.1992C40.9923 62.1289 40.9571 62.0938 40.8868 62.0586L40.4649 61.707L41.0274 60.8633C41.0978 60.7578 41.1329 60.6523 41.1329 60.5117V58.4023C41.1329 58.2266 41.0626 58.0859 40.9571 57.9805L40.2892 57.3125C41.836 56.082 43.5235 54.043 43.5235 51.2305C43.5235 47.9961 40.922 45.3594 37.6524 45.3594C36.9493 45.3594 36.2814 45.4648 35.6134 45.7109L35.3673 45.0078L37.9337 42.3711L39.6212 41.5273C39.9376 41.3867 40.0431 41 39.9024 40.7188L37.9689 36.7461C43.0314 33.0195 49.6056 32 55.547 34.0391L54.0704 35.4453H48.5157C48.3048 35.4453 48.129 35.5508 48.0235 35.6914L44.8243 40.2266C44.6485 40.5078 44.6837 40.8594 44.9649 41.0703L48.1642 43.5313L44.8595 47.082C44.754 47.1875 44.6837 47.3281 44.6837 47.5039V52.7422C44.6837 52.9883 44.8595 53.2344 45.0704 53.3047L50.5548 55.3086V57.9805C50.5548 58.1563 50.6251 58.332 50.7657 58.4375L53.4376 60.8633V63.1484C53.4376 63.5 53.7189 63.7461 54.0353 63.7461H56.9532C57.1642 63.7461 57.3751 63.6406 57.4806 63.4297L61.2423 56.8906C61.3126 56.7852 61.3126 56.6797 61.3126 56.5742V53.6563L63.211 51.7578C63.3165 51.6523 63.3868 51.4766 63.3868 51.3359V48.8398C63.3868 48.5586 63.211 48.3125 62.9298 48.2422L59.5548 47.293L58.3243 44.8672C58.2189 44.6914 58.0782 44.5859 57.8673 44.5508L53.086 43.8125V43.3203L59.5196 41.8789L61.9454 44.3047C62.0509 44.4102 62.2267 44.4805 62.3673 44.4805H66.8673C67.922 46.8711 68.4493 49.4375 68.4493 52.0742C68.4493 62.6211 59.8712 71.1641 49.3243 71.1992Z" fill="white"/>
<path d="M37.582 48.0664C35.8945 48.0664 34.4883 49.4375 34.4883 51.1602C34.4883 52.8477 35.8594 54.2539 37.582 54.2539C39.3047 54.2539 40.6758 52.8828 40.6758 51.1602C40.6406 49.4727 39.2695 48.0664 37.582 48.0664ZM37.582 53.0234C36.5625 53.0234 35.7187 52.1797 35.7187 51.1602C35.7187 50.1406 36.5625 49.2969 37.582 49.2969C38.6016 49.2969 39.4453 50.1406 39.4453 51.1602C39.4453 52.1797 38.6016 53.0234 37.582 53.0234Z" fill="white"/>
</g>
<defs>
<clipPath id="clip0_1_6254">
<rect width="45" height="45" fill="white" transform="translate(27 27.5)"/>
</clipPath>
</defs>
</svg>
