<svg width="100" height="100" viewBox="0 0 100 100" fill="none" xmlns="http://www.w3.org/2000/svg">
<rect width="100" height="100" rx="50" fill="#83CD20"/>
<path d="M33.6797 47.5391C33.6797 51.793 37.125 55.3086 41.4492 55.3086C45.7383 55.3086 49.2187 51.8281 49.2187 47.5391C49.2187 43.3203 45.8086 39.7695 41.4492 39.7695C37.1953 39.7695 33.6797 43.25 33.6797 47.5391ZM47.3555 50.3164H45.3867C45.5273 49.6133 45.6328 48.875 45.6328 48.1367H47.9531C47.918 48.9102 47.707 49.6484 47.3555 50.3164ZM34.9453 48.1367H37.2656C37.3008 48.875 37.3711 49.5781 37.5117 50.3164H35.543C35.1914 49.6484 35.0156 48.9102 34.9453 48.1367ZM38.4961 48.1367H40.8516V50.3164H38.7773C38.6016 49.6133 38.4961 48.875 38.4961 48.1367ZM40.8516 51.5469V53.9023C40.2187 53.5859 39.5859 52.7422 39.1289 51.5469H40.8516ZM42.082 53.9375V51.582H43.8047C43.3125 52.7422 42.7148 53.5859 42.082 53.9375ZM42.082 50.3164V48.1367H44.4375C44.4023 48.875 44.2969 49.6133 44.1562 50.3164H42.082ZM47.9883 46.9414H45.668C45.6328 46.2031 45.5625 45.5 45.4219 44.7617H47.3906C47.707 45.4297 47.918 46.168 47.9883 46.9414ZM44.4375 46.9414H42.082V44.7617H44.1562C44.2969 45.4648 44.4023 46.2031 44.4375 46.9414ZM42.082 43.5312V41.1758C42.7148 41.4922 43.3477 42.3359 43.8047 43.5312H42.082ZM40.8516 41.1406V43.4961H39.1289C39.5859 42.3359 40.1836 41.4922 40.8516 41.1406ZM40.8516 44.7617V46.9414H38.4961C38.5312 46.2031 38.6367 45.4648 38.7773 44.7617H40.8516ZM37.2656 46.9414H34.9453C35.0156 46.2031 35.2266 45.4648 35.543 44.7617H37.5117C37.3711 45.4648 37.2656 46.2031 37.2656 46.9414ZM36.2812 51.5469H37.8281C38.0391 52.2148 38.3203 52.8828 38.707 53.4805C37.7578 53.0234 36.9492 52.3906 36.2812 51.5469ZM44.1914 53.4805C44.5781 52.8828 44.8594 52.25 45.0703 51.5469H46.6172C45.9844 52.3906 45.1406 53.0234 44.1914 53.4805ZM46.6172 43.5312H45.0703C44.8594 42.8633 44.5781 42.2305 44.1914 41.5977C45.1406 42.0547 45.9844 42.6875 46.6172 43.5312ZM38.707 41.5977C38.3203 42.1953 38.0391 42.8281 37.8281 43.5312H36.2812C36.9492 42.6875 37.7578 42.0547 38.707 41.5977Z" fill="white"/>
<path d="M52.875 57.1016H30.0586C29.707 57.1016 29.4609 57.3828 29.4609 57.6992V60.0898C29.4609 60.4414 29.7422 60.6875 30.0586 60.6875H52.875C53.2266 60.6875 53.4727 60.4063 53.4727 60.0898V57.6992C53.4727 57.3828 53.1914 57.1016 52.875 57.1016ZM52.2422 59.4922H30.6562V58.332H52.2422V59.4922Z" fill="white"/>
<path d="M48.0586 61.8828H34.875C34.5234 61.8828 34.2773 62.1641 34.2773 62.4805V64.8711C34.2773 65.2227 34.5586 65.4687 34.875 65.4687H48.0586C48.4102 65.4687 48.6562 65.1875 48.6562 64.8711V62.4805C48.6562 62.1641 48.375 61.8828 48.0586 61.8828ZM47.4258 64.3086H35.4727V63.1484H47.4258V64.3086Z" fill="white"/>
<path d="M57.4805 41.7734L59.625 40.9297V41.9844L58.2891 43.6016C58.1836 43.707 58.1484 43.8477 58.1484 43.9883V45.5C58.1484 45.957 58.6406 46.2734 59.0625 46.0273L61.418 44.7266C62.3672 44.1992 62.9648 43.1797 62.9648 42.0898V34.3555C62.9648 34.0039 62.6836 33.7578 62.3672 33.7578H61.418C60.4336 33.7578 59.5898 34.5664 59.5898 35.5859V37.4844L57.5859 38.7148C56.9883 39.0664 56.6367 39.7344 56.6367 40.4375V41.2109C56.6367 41.6328 57.0937 41.9492 57.4805 41.7734ZM58.2539 39.7695L60.5742 38.3281C60.75 38.2227 60.8555 38.0117 60.8555 37.8008V35.5508C60.8555 35.2344 61.1016 34.9531 61.4531 34.9531H61.7695V42.0547C61.7695 42.6875 61.418 43.2852 60.8555 43.6016L59.4141 44.4102V44.1641L60.7148 42.582C60.8203 42.4766 60.8555 42.3359 60.8555 42.1953V40.0156C60.8555 39.5937 60.4336 39.2773 60.0117 39.4531L57.9023 40.2969C57.9023 40.0859 58.043 39.875 58.2539 39.7695Z" fill="white"/>
<path d="M71.7891 40.6494C58.3945 27.2549 63.0351 31.8955 62.0156 30.876C61.7695 30.6299 61.3828 30.6299 61.1367 30.876L55.1602 36.8877C54.4219 35.833 53.2266 35.2354 51.9609 35.2354H51.3984V31.333C51.3984 30.9463 51.0469 30.665 50.6602 30.7354L27.5273 35.2354C27.2461 35.3057 27.0352 35.5518 27.0352 35.833V68.7041C27.0352 69.0557 27.3164 69.3018 27.6328 69.3018H55.2305C55.582 69.3018 55.8281 69.0205 55.8281 68.7041V57.4541L71.7539 41.5283C72.0351 41.2822 72.0351 40.8955 71.7891 40.6494ZM55.7227 38.0479L61.5937 32.1768L68.7656 39.3486C68.0977 40.0166 57.3047 50.8096 55.8633 52.251V39.1377C55.8633 38.751 55.8281 38.3994 55.7227 38.0479ZM50.168 32.0713V35.2002H34.0312L50.168 32.0713ZM28.2656 68.0713V36.4307H51.9609C53.4375 36.4307 54.6328 37.626 54.6328 39.1025V68.0361H28.2656V68.0713ZM55.8633 55.6963V54.0088L69.6445 40.2275L70.4883 41.0713L55.8633 55.6963Z" fill="white"/>
</svg>
