<svg width="100" height="100" viewBox="0 0 100 100" fill="none" xmlns="http://www.w3.org/2000/svg">
<rect width="100" height="100" rx="50" fill="#83CD20"/>
<path d="M71.3848 37.2539H38.7348C38.644 37.2539 38.5543 37.2739 38.4722 37.3126C38.3901 37.3513 38.3176 37.4078 38.2598 37.4779L36.8888 39.1429L35.5177 37.4779C35.4599 37.4078 35.3874 37.3513 35.3053 37.3126C35.2232 37.2739 35.1335 37.2539 35.0427 37.2539H27.6152C27.5344 37.2539 27.4544 37.2698 27.3797 37.3008C27.305 37.3317 27.2372 37.3771 27.1801 37.4342C27.1229 37.4914 27.0776 37.5593 27.0467 37.6339C27.0158 37.7086 27 37.7887 27 37.8695V62.1273C27 62.2905 27.0648 62.447 27.1802 62.5623C27.2956 62.6777 27.4521 62.7425 27.6152 62.7425H35.0406C35.1314 62.7426 35.2211 62.7225 35.3032 62.6838C35.3853 62.6451 35.4578 62.5887 35.5155 62.5186L36.8866 60.8536L38.2577 62.5186C38.3155 62.5887 38.388 62.6451 38.4701 62.6838C38.5522 62.7225 38.6419 62.7426 38.7327 62.7425H71.3848C71.4656 62.7426 71.5456 62.7267 71.6203 62.6958C71.6949 62.6649 71.7628 62.6196 71.8199 62.5624C71.877 62.5053 71.9224 62.4375 71.9533 62.3628C71.9842 62.2881 72 62.2081 72 62.1273V37.8695C72.0001 37.7887 71.9842 37.7086 71.9534 37.6339C71.9225 37.5592 71.8772 37.4913 71.82 37.4341C71.7629 37.3769 71.695 37.3316 71.6203 37.3007C71.5457 37.2698 71.4656 37.2539 71.3848 37.2539ZM28.2305 38.4844H34.7502L36.4127 40.5016C36.4724 40.5685 36.5456 40.622 36.6273 40.6586C36.7091 40.6952 36.7977 40.7141 36.8873 40.7141C36.977 40.7141 37.0656 40.6952 37.1473 40.6586C37.2291 40.622 37.3023 40.5685 37.362 40.5016L39.0245 38.4844H70.7706V57.2518H28.2305V38.4844ZM70.7695 61.5117H39.0252L37.3627 59.4945C37.303 59.4276 37.2298 59.3741 37.148 59.3375C37.0663 59.3009 36.9777 59.282 36.888 59.282C36.7984 59.282 36.7098 59.3009 36.628 59.3375C36.5463 59.3741 36.4731 59.4276 36.4134 59.4945L34.7509 61.5117H28.2305V58.4823H70.7695V61.5117Z" fill="white"/>
<path d="M47.4609 40.0668H40.0612C39.9705 40.0667 39.8809 40.0867 39.7988 40.1255C39.7167 40.1642 39.6443 40.2206 39.5866 40.2907L36.8877 43.5652L34.1887 40.2904C34.1311 40.2203 34.0587 40.1638 33.9766 40.1251C33.8945 40.0864 33.8049 40.0663 33.7141 40.0664H30.4277C30.3469 40.0664 30.2668 40.0823 30.1921 40.1133C30.1174 40.1443 30.0496 40.1896 29.9924 40.2469C29.9353 40.3041 29.89 40.372 29.8591 40.4467C29.8283 40.5214 29.8124 40.6015 29.8125 40.6823V55.0549C29.8125 55.2181 29.8773 55.3746 29.9927 55.49C30.1081 55.6053 30.2646 55.6702 30.4277 55.6702H47.4609C47.6241 55.6702 47.7806 55.6053 47.896 55.49C48.0114 55.3746 48.0762 55.2181 48.0762 55.0549V40.6823C48.0762 40.6015 48.0603 40.5215 48.0294 40.4468C47.9985 40.3721 47.9532 40.3042 47.8961 40.2471C47.839 40.1899 47.7711 40.1446 47.6965 40.1136C47.6218 40.0827 47.5418 40.0668 47.4609 40.0668ZM46.8457 54.4397H31.043V41.2972H33.4237L36.412 44.9243C36.4717 44.9911 36.5449 45.0446 36.6266 45.0812C36.7084 45.1178 36.797 45.1368 36.8866 45.1368C36.9763 45.1368 37.0648 45.1178 37.1466 45.0812C37.2284 45.0446 37.3016 44.9911 37.3612 44.9243L40.3495 41.2972H46.8464L46.8457 54.4397Z" fill="white"/>
<path d="M67.8447 40.9997C67.3333 40.4896 66.6405 40.2031 65.9181 40.2031C65.1958 40.2031 64.503 40.4896 63.9916 40.9997L61.435 43.5562L57.1133 42.5557C56.6047 42.4363 56.074 42.4492 55.5718 42.5931C55.0697 42.7369 54.6127 43.007 54.2445 43.3776L53.2833 44.3388C53.2124 44.4096 53.1599 44.4967 53.1303 44.5924C53.1007 44.6881 53.095 44.7897 53.1136 44.8881C53.1322 44.9866 53.1746 45.079 53.2371 45.1573C53.2996 45.2357 53.3803 45.2976 53.4721 45.3376L57.7742 47.2188L55.8515 49.1411L52.0898 49.4895C51.947 49.5022 51.8132 49.5643 51.7115 49.6653L49.8482 51.5286C49.7724 51.6044 49.7177 51.6987 49.6896 51.8022C49.6614 51.9056 49.6608 52.0147 49.6877 52.1184C49.7147 52.2222 49.7683 52.3171 49.8433 52.3938C49.9182 52.4705 50.0119 52.5262 50.1151 52.5555L54.678 53.8531C55.5061 54.0884 56.382 54.0985 57.2153 53.8822C58.0486 53.6658 58.809 53.2311 59.4181 52.6227L69.0073 43.0335C69.0645 42.9764 69.1099 42.9086 69.1408 42.834C69.1717 42.7593 69.1877 42.6794 69.1877 42.5986C69.1877 42.5178 69.1717 42.4378 69.1408 42.3632C69.1099 42.2886 69.0645 42.2208 69.0073 42.1637L67.8447 40.9997ZM58.548 51.7519C58.0941 52.2056 57.5272 52.5299 56.906 52.6913C56.2848 52.8527 55.6318 52.8453 55.0144 52.6698L51.4587 51.659L52.4255 50.6922L56.1873 50.3438C56.3302 50.3308 56.4641 50.2679 56.5655 50.1663L59.2828 47.4491C59.3537 47.3783 59.4062 47.2912 59.4358 47.1955C59.4654 47.0997 59.4711 46.9982 59.4525 46.8998C59.4339 46.8013 59.3915 46.7089 59.329 46.6305C59.2665 46.5522 59.1858 46.4903 59.094 46.4503L54.7912 44.5708L55.1146 44.2474C55.3357 44.0249 55.6102 43.8628 55.9118 43.7766C56.2134 43.6904 56.532 43.6831 56.8373 43.7552L61.4885 44.8317C61.5902 44.855 61.6961 44.8522 61.7965 44.8234C61.8968 44.7947 61.9882 44.7411 62.0622 44.6675L64.86 41.8698C65.1405 41.5901 65.5204 41.4331 65.9166 41.4331C66.3127 41.4331 66.6927 41.5901 66.9732 41.8698L67.7009 42.5979L58.548 51.7519Z" fill="white"/>
<path d="M44.6484 51.6289H33.2402C33.0771 51.6289 32.9206 51.6937 32.8052 51.8091C32.6898 51.9245 32.625 52.081 32.625 52.2441C32.625 52.4073 32.6898 52.5638 32.8052 52.6792C32.9206 52.7946 33.0771 52.8594 33.2402 52.8594H44.6484C44.8116 52.8594 44.9681 52.7946 45.0835 52.6792C45.1988 52.5638 45.2637 52.4073 45.2637 52.2441C45.2637 52.081 45.1988 51.9245 45.0835 51.8091C44.9681 51.6937 44.8116 51.6289 44.6484 51.6289Z" fill="white"/>
<path d="M44.6484 49.375H33.2402C33.0771 49.375 32.9206 49.4398 32.8052 49.5552C32.6898 49.6706 32.625 49.8271 32.625 49.9902C32.625 50.1534 32.6898 50.3099 32.8052 50.4253C32.9206 50.5407 33.0771 50.6055 33.2402 50.6055H44.6484C44.8116 50.6055 44.9681 50.5407 45.0835 50.4253C45.1988 50.3099 45.2637 50.1534 45.2637 49.9902C45.2637 49.8271 45.1988 49.6706 45.0835 49.5552C44.9681 49.4398 44.8116 49.375 44.6484 49.375Z" fill="white"/>
<path d="M44.6484 47.1211H33.2402C33.0771 47.1211 32.9206 47.1859 32.8052 47.3013C32.6898 47.4167 32.625 47.5732 32.625 47.7363C32.625 47.8995 32.6898 48.056 32.8052 48.1714C32.9206 48.2867 33.0771 48.3516 33.2402 48.3516H44.6484C44.8116 48.3516 44.9681 48.2867 45.0835 48.1714C45.1988 48.056 45.2637 47.8995 45.2637 47.7363C45.2637 47.5732 45.1988 47.4167 45.0835 47.3013C44.9681 47.1859 44.8116 47.1211 44.6484 47.1211Z" fill="white"/>
<path d="M39.7334 45.4863C39.7334 45.5671 39.7492 45.6472 39.7801 45.7218C39.811 45.7965 39.8564 45.8643 39.9135 45.9215C39.9706 45.9786 40.0385 46.0239 40.1131 46.0548C40.1878 46.0857 40.2678 46.1016 40.3486 46.1016H44.6486C44.8118 46.1016 44.9683 46.0367 45.0836 45.9214C45.199 45.806 45.2638 45.6495 45.2638 45.4863C45.2638 45.3232 45.199 45.1667 45.0836 45.0513C44.9683 44.9359 44.8118 44.8711 44.6486 44.8711H40.3486C40.2678 44.871 40.1878 44.8869 40.1131 44.9178C40.0385 44.9487 39.9706 44.9941 39.9135 45.0512C39.8564 45.1083 39.811 45.1762 39.7801 45.2508C39.7492 45.3255 39.7334 45.4055 39.7334 45.4863Z" fill="white"/>
</svg>
