<svg width="155" height="33" viewBox="0 0 155 33" fill="none" xmlns="http://www.w3.org/2000/svg">
<g clip-path="url(#clip0_623_270)">
<path d="M18.6023 32.6686C15.3714 32.6686 12.2131 31.7106 9.52667 29.9156C6.84028 28.1206 4.74649 25.5693 3.51009 22.5844C2.27368 19.5994 1.95018 16.3149 2.58049 13.1461C3.21081 9.97725 4.76663 7.06651 7.05121 4.78193C9.3358 2.49734 12.2465 0.941522 15.4153 0.311207C18.5842 -0.319108 21.8687 0.00439203 24.8537 1.2408C27.8386 2.47721 30.3899 4.57099 32.1849 7.25738C33.9799 9.94376 34.9379 13.1021 34.9379 16.333C34.9331 20.664 33.2105 24.8163 30.148 27.8787C27.0855 30.9412 22.9333 32.6639 18.6023 32.6686Z" fill="#83CD20"/>
<path d="M18.6023 31.673C21.6362 31.673 24.6021 30.7734 27.1247 29.0878C29.6474 27.4022 31.6136 25.0064 32.7746 22.2034C33.9357 19.4003 34.2395 16.316 33.6476 13.3403C33.0557 10.3646 31.5947 7.63127 29.4493 5.48593C27.304 3.34058 24.5706 1.87958 21.595 1.28768C18.6193 0.695782 15.5349 0.999566 12.7319 2.16062C9.92885 3.32167 7.53306 5.28785 5.84747 7.81051C4.16189 10.3332 3.26221 13.299 3.26221 16.333C3.267 20.3999 4.88472 24.299 7.7605 27.1748C10.6363 30.0505 14.5353 31.6683 18.6023 31.673Z" fill="#034833"/>
<path d="M38.7808 10.5378C38.5222 10.4421 37.8343 9.63009 34.7441 9.88869C33.7097 9.97661 30.7125 10.9231 26.924 12.1049L18.0541 8.52588L15.3802 8.81034L22.5098 13.4832C20.0402 14.2435 17.4412 15.0167 14.9354 15.6891L9.71949 12.0687L8.27393 12.4617L12.6908 18.1044L11.4159 20.7472L13.2649 20.5274L14.4906 18.756C17.9675 18.6451 21.4284 18.2341 24.8346 17.5277L23.102 24.5098L25.2923 23.5685L28.6851 16.6924C39.373 14.1375 40.2936 12.1825 40.4953 11.6368C40.7125 11.0162 39.042 10.636 38.7808 10.5378Z" fill="#83CD20"/>
<path d="M4.75977 27.3262L22.5151 24.0937L22.8513 22.1465L4.75977 27.3262Z" fill="#83CD20"/>
<path d="M2.73486 24.5954L23.2003 20.5173L23.6141 18.4434L2.73486 24.5954Z" fill="#83CD20"/>
<path d="M11.0568 19.925L1.53516 21.8852L11.6541 18.738L11.0568 19.925Z" fill="#83CD20"/>
<path d="M11.116 17.1114L0.945312 19.3948L10.3919 16.2891L11.116 17.1114Z" fill="#83CD20"/>
<path d="M9.55407 14.8176L0.508301 16.9071L8.83 13.9927L9.55407 14.8176Z" fill="#83CD20"/>
</g>
<path d="M134.044 28.0636L141.852 16.0636L134.108 4.22363H139.1L145.436 13.9196H143.132L149.436 4.22363H154.428L146.716 16.0636L154.492 28.0636H149.5L143.132 18.2396H145.436L139.036 28.0636H134.044Z" fill="white"/>
<path d="M125.746 28.4477C123.954 28.4477 122.386 28.0424 121.042 27.2317C119.698 26.4211 118.653 25.3224 117.906 23.9357C117.159 22.5491 116.786 21.0131 116.786 19.3277C116.786 17.5784 117.159 16.0317 117.906 14.6877C118.674 13.3224 119.709 12.2451 121.01 11.4557C122.333 10.6664 123.805 10.2717 125.426 10.2717C126.791 10.2717 127.986 10.4957 129.01 10.9437C130.055 11.3917 130.941 12.0104 131.666 12.7997C132.391 13.5891 132.946 14.4957 133.33 15.5197C133.714 16.5224 133.906 17.6104 133.906 18.7837C133.906 19.0824 133.885 19.3917 133.842 19.7117C133.821 20.0317 133.767 20.3091 133.682 20.5437H120.242V17.3437H131.314L129.33 18.8477C129.522 17.8664 129.469 16.9917 129.17 16.2237C128.893 15.4557 128.423 14.8477 127.762 14.3997C127.122 13.9517 126.343 13.7277 125.426 13.7277C124.551 13.7277 123.773 13.9517 123.09 14.3997C122.407 14.8264 121.885 15.4664 121.522 16.3197C121.181 17.1517 121.053 18.1651 121.138 19.3597C121.053 20.4264 121.191 21.3757 121.554 22.2077C121.938 23.0184 122.493 23.6477 123.218 24.0957C123.965 24.5437 124.818 24.7677 125.778 24.7677C126.738 24.7677 127.549 24.5651 128.21 24.1597C128.893 23.7544 129.426 23.2104 129.81 22.5277L133.202 24.1917C132.861 25.0237 132.327 25.7597 131.602 26.3997C130.877 27.0397 130.013 27.5411 129.01 27.9037C128.029 28.2664 126.941 28.4477 125.746 28.4477Z" fill="white"/>
<path d="M113.804 28.2557C111.841 28.2557 110.316 27.7224 109.228 26.6557C108.161 25.5677 107.628 24.0424 107.628 22.0797V14.3997H104.62V10.6557H104.94C105.793 10.6557 106.454 10.4317 106.924 9.98375C107.393 9.53574 107.628 8.88508 107.628 8.03174V6.68774H111.82V10.6557H115.82V14.3997H111.82V21.8557C111.82 22.4317 111.916 22.9224 112.108 23.3277C112.321 23.7331 112.641 24.0424 113.068 24.2557C113.516 24.4691 114.081 24.5757 114.764 24.5757C114.913 24.5757 115.084 24.5651 115.276 24.5437C115.489 24.5224 115.692 24.5011 115.884 24.4797V28.0637C115.585 28.1064 115.244 28.1491 114.86 28.1917C114.476 28.2344 114.124 28.2557 113.804 28.2557Z" fill="white"/>
<path d="M94.5468 28.4475C93.2028 28.4475 92.0295 28.1489 91.0268 27.5515C90.0455 26.9542 89.2882 26.1222 88.7548 25.0555C88.2428 23.9889 87.9868 22.7409 87.9868 21.3115V10.6555H92.1788V20.9595C92.1788 21.6849 92.3175 22.3249 92.5948 22.8795C92.8935 23.4129 93.3095 23.8395 93.8428 24.1595C94.3975 24.4582 95.0162 24.6075 95.6988 24.6075C96.3815 24.6075 96.9895 24.4582 97.5228 24.1595C98.0562 23.8395 98.4721 23.4022 98.7708 22.8475C99.0695 22.2929 99.2188 21.6315 99.2188 20.8635V10.6555H103.411V28.0635H99.4428V24.6395L99.7948 25.2475C99.3895 26.3142 98.7175 27.1142 97.7788 27.6475C96.8615 28.1809 95.7842 28.4475 94.5468 28.4475Z" fill="white"/>
<path d="M77.4157 28.4477C75.709 28.4477 74.1517 28.0531 72.7437 27.2637C71.357 26.4744 70.2477 25.3971 69.4157 24.0317C68.605 22.6664 68.1997 21.1091 68.1997 19.3597C68.1997 17.6104 68.605 16.0531 69.4157 14.6877C70.2477 13.3224 71.357 12.2451 72.7437 11.4557C74.1304 10.6664 75.6877 10.2717 77.4157 10.2717C79.1224 10.2717 80.669 10.6664 82.0557 11.4557C83.4424 12.2451 84.541 13.3224 85.3517 14.6877C86.1837 16.0317 86.5997 17.5891 86.5997 19.3597C86.5997 21.1091 86.1837 22.6664 85.3517 24.0317C84.5197 25.3971 83.4104 26.4744 82.0237 27.2637C80.637 28.0531 79.101 28.4477 77.4157 28.4477ZM77.4157 24.6077C78.3544 24.6077 79.1757 24.3837 79.8797 23.9357C80.605 23.4877 81.1704 22.8691 81.5757 22.0797C82.0024 21.2691 82.2157 20.3624 82.2157 19.3597C82.2157 18.3357 82.0024 17.4397 81.5757 16.6717C81.1704 15.8824 80.605 15.2637 79.8797 14.8157C79.1757 14.3464 78.3544 14.1117 77.4157 14.1117C76.4557 14.1117 75.613 14.3464 74.8877 14.8157C74.1624 15.2637 73.5864 15.8824 73.1597 16.6717C72.7544 17.4397 72.5517 18.3357 72.5517 19.3597C72.5517 20.3624 72.7544 21.2691 73.1597 22.0797C73.5864 22.8691 74.1624 23.4877 74.8877 23.9357C75.613 24.3837 76.4557 24.6077 77.4157 24.6077Z" fill="white"/>
<path d="M50.5083 28.0636V4.22363H59.3723C60.9936 4.22363 62.423 4.5223 63.6603 5.11963C64.919 5.69563 65.9003 6.54897 66.6043 7.67963C67.3083 8.78897 67.6603 10.1436 67.6603 11.7436C67.6603 13.3863 67.2656 14.7836 66.4763 15.9356C65.7083 17.0876 64.663 17.941 63.3403 18.4956L68.8123 28.0636H63.8843L58.0283 17.5996L60.8443 19.2636H54.8603V28.0636H50.5083ZM54.8603 15.4236H59.4363C60.2256 15.4236 60.9083 15.2743 61.4843 14.9756C62.0603 14.6556 62.5083 14.2183 62.8283 13.6636C63.1483 13.109 63.3083 12.469 63.3083 11.7436C63.3083 10.997 63.1483 10.357 62.8283 9.82363C62.5083 9.26897 62.0603 8.8423 61.4843 8.54363C60.9083 8.22363 60.2256 8.06363 59.4363 8.06363H54.8603V15.4236Z" fill="white"/>
<defs>
<clipPath id="clip0_623_270">
<rect width="40" height="32.6713" fill="white" transform="translate(0.508301)"/>
</clipPath>
</defs>
</svg>
