<svg width="41" height="33" viewBox="0 0 41 33" fill="none" xmlns="http://www.w3.org/2000/svg">
<g clip-path="url(#clip0_623_271)">
<path d="M18.6023 32.6686C15.3714 32.6686 12.2131 31.7106 9.52667 29.9156C6.84028 28.1206 4.74649 25.5693 3.51009 22.5844C2.27368 19.5994 1.95018 16.3149 2.58049 13.1461C3.21081 9.97725 4.76663 7.06651 7.05121 4.78193C9.3358 2.49734 12.2465 0.941522 15.4153 0.311207C18.5842 -0.319108 21.8687 0.00439203 24.8537 1.2408C27.8386 2.47721 30.3899 4.57099 32.1849 7.25738C33.9799 9.94376 34.9379 13.1021 34.9379 16.333C34.9331 20.664 33.2105 24.8163 30.148 27.8787C27.0855 30.9412 22.9333 32.6639 18.6023 32.6686Z" fill="#83CD20"/>
<path d="M18.6023 31.673C21.6362 31.673 24.6021 30.7734 27.1247 29.0878C29.6474 27.4022 31.6136 25.0064 32.7746 22.2034C33.9357 19.4003 34.2395 16.316 33.6476 13.3403C33.0557 10.3646 31.5947 7.63127 29.4493 5.48593C27.304 3.34058 24.5706 1.87958 21.595 1.28768C18.6193 0.695782 15.5349 0.999566 12.7319 2.16062C9.92885 3.32167 7.53306 5.28785 5.84747 7.81051C4.16189 10.3332 3.26221 13.299 3.26221 16.333C3.267 20.3999 4.88472 24.299 7.7605 27.1748C10.6363 30.0505 14.5353 31.6683 18.6023 31.673Z" fill="#034833"/>
<path d="M38.7808 10.5378C38.5222 10.4421 37.8343 9.63009 34.7441 9.88869C33.7097 9.97661 30.7125 10.9231 26.924 12.1049L18.0541 8.52588L15.3802 8.81034L22.5098 13.4832C20.0402 14.2435 17.4412 15.0167 14.9354 15.6891L9.71949 12.0687L8.27393 12.4617L12.6908 18.1044L11.4159 20.7472L13.2649 20.5274L14.4906 18.756C17.9675 18.6451 21.4284 18.2341 24.8346 17.5277L23.102 24.5098L25.2923 23.5685L28.6851 16.6924C39.373 14.1375 40.2936 12.1825 40.4953 11.6368C40.7125 11.0162 39.042 10.636 38.7808 10.5378Z" fill="#83CD20"/>
<path d="M4.75977 27.3262L22.5151 24.0937L22.8513 22.1465L4.75977 27.3262Z" fill="#83CD20"/>
<path d="M2.73486 24.5954L23.2003 20.5173L23.6141 18.4434L2.73486 24.5954Z" fill="#83CD20"/>
<path d="M11.0568 19.925L1.53516 21.8852L11.6541 18.738L11.0568 19.925Z" fill="#83CD20"/>
<path d="M11.116 17.1114L0.945312 19.3948L10.3919 16.2891L11.116 17.1114Z" fill="#83CD20"/>
<path d="M9.55407 14.8176L0.508301 16.9071L8.83 13.9927L9.55407 14.8176Z" fill="#83CD20"/>
</g>
<defs>
<clipPath id="clip0_623_271">
<rect width="40" height="32.6713" fill="white" transform="translate(0.508301)"/>
</clipPath>
</defs>
</svg>
